<mxfile host="app.diagrams.net" modified="2024-03-03T12:44:02.391Z" agent="Mozilla/5.0 (Windows NT 10.0; Win64; x64) AppleWebKit/537.36 (KHTML, like Gecko) Chrome/122.0.0.0 Safari/537.36" etag="RxSTTFWdeRsMYi1VIMfh" version="24.0.1" type="github">
  <diagram id="C5RBs43oDa-KdzZeNtuy" name="Page-1">
    <mxGraphModel dx="1120" dy="683" grid="1" gridSize="10" guides="1" tooltips="1" connect="1" arrows="1" fold="1" page="1" pageScale="1" pageWidth="827" pageHeight="1169" math="0" shadow="0">
      <root>
        <mxCell id="WIyWlLk6GJQsqaUBKTNV-0" />
        <mxCell id="WIyWlLk6GJQsqaUBKTNV-1" parent="WIyWlLk6GJQsqaUBKTNV-0" />
        <mxCell id="dWxM8UPutGdHs3OsUZbR-8" value="" style="edgeStyle=orthogonalEdgeStyle;rounded=0;orthogonalLoop=1;jettySize=auto;html=1;" edge="1" parent="WIyWlLk6GJQsqaUBKTNV-1" source="WIyWlLk6GJQsqaUBKTNV-3" target="dWxM8UPutGdHs3OsUZbR-7">
          <mxGeometry relative="1" as="geometry" />
        </mxCell>
        <mxCell id="WIyWlLk6GJQsqaUBKTNV-3" value="POST --&amp;gt; auth/signin" style="rounded=1;whiteSpace=wrap;html=1;fontSize=12;glass=0;strokeWidth=1;shadow=0;" parent="WIyWlLk6GJQsqaUBKTNV-1" vertex="1">
          <mxGeometry x="160" y="130" width="120" height="40" as="geometry" />
        </mxCell>
        <mxCell id="dWxM8UPutGdHs3OsUZbR-1" value="Body{&lt;div&gt;username: string&lt;/div&gt;&lt;div&gt;password: string&lt;/div&gt;&lt;div&gt;}&lt;/div&gt;" style="shape=parallelogram;html=1;strokeWidth=2;perimeter=parallelogramPerimeter;whiteSpace=wrap;rounded=1;arcSize=12;size=0.23;" vertex="1" parent="WIyWlLk6GJQsqaUBKTNV-1">
          <mxGeometry x="234" y="190" width="160" height="60" as="geometry" />
        </mxCell>
        <mxCell id="dWxM8UPutGdHs3OsUZbR-3" value="Request" style="text;html=1;align=center;verticalAlign=middle;whiteSpace=wrap;rounded=0;" vertex="1" parent="WIyWlLk6GJQsqaUBKTNV-1">
          <mxGeometry x="290" y="160" width="60" height="30" as="geometry" />
        </mxCell>
        <mxCell id="dWxM8UPutGdHs3OsUZbR-39" value="" style="edgeStyle=orthogonalEdgeStyle;rounded=0;orthogonalLoop=1;jettySize=auto;html=1;" edge="1" parent="WIyWlLk6GJQsqaUBKTNV-1" source="dWxM8UPutGdHs3OsUZbR-6">
          <mxGeometry relative="1" as="geometry">
            <mxPoint x="218" y="130" as="targetPoint" />
          </mxGeometry>
        </mxCell>
        <mxCell id="dWxM8UPutGdHs3OsUZbR-6" value="Enter" style="strokeWidth=2;html=1;shape=mxgraph.flowchart.start_1;whiteSpace=wrap;" vertex="1" parent="WIyWlLk6GJQsqaUBKTNV-1">
          <mxGeometry x="178.5" y="50" width="80" height="50" as="geometry" />
        </mxCell>
        <mxCell id="dWxM8UPutGdHs3OsUZbR-10" value="" style="edgeStyle=orthogonalEdgeStyle;rounded=0;orthogonalLoop=1;jettySize=auto;html=1;" edge="1" parent="WIyWlLk6GJQsqaUBKTNV-1" source="dWxM8UPutGdHs3OsUZbR-7" target="dWxM8UPutGdHs3OsUZbR-9">
          <mxGeometry relative="1" as="geometry" />
        </mxCell>
        <mxCell id="dWxM8UPutGdHs3OsUZbR-7" value="username validation" style="strokeWidth=2;html=1;shape=mxgraph.flowchart.decision;whiteSpace=wrap;" vertex="1" parent="WIyWlLk6GJQsqaUBKTNV-1">
          <mxGeometry x="170" y="265" width="100" height="80" as="geometry" />
        </mxCell>
        <mxCell id="dWxM8UPutGdHs3OsUZbR-12" value="" style="edgeStyle=orthogonalEdgeStyle;rounded=0;orthogonalLoop=1;jettySize=auto;html=1;" edge="1" parent="WIyWlLk6GJQsqaUBKTNV-1" source="dWxM8UPutGdHs3OsUZbR-9" target="dWxM8UPutGdHs3OsUZbR-11">
          <mxGeometry relative="1" as="geometry" />
        </mxCell>
        <mxCell id="dWxM8UPutGdHs3OsUZbR-9" value="&lt;div&gt;&lt;br&gt;&lt;/div&gt;Get user data" style="strokeWidth=2;html=1;shape=mxgraph.flowchart.database;whiteSpace=wrap;" vertex="1" parent="WIyWlLk6GJQsqaUBKTNV-1">
          <mxGeometry x="177.5" y="390" width="85" height="50" as="geometry" />
        </mxCell>
        <mxCell id="dWxM8UPutGdHs3OsUZbR-14" value="" style="edgeStyle=orthogonalEdgeStyle;rounded=0;orthogonalLoop=1;jettySize=auto;html=1;" edge="1" parent="WIyWlLk6GJQsqaUBKTNV-1" source="dWxM8UPutGdHs3OsUZbR-11" target="dWxM8UPutGdHs3OsUZbR-13">
          <mxGeometry relative="1" as="geometry" />
        </mxCell>
        <mxCell id="dWxM8UPutGdHs3OsUZbR-11" value="compare req.pwd and HashPWD" style="strokeWidth=2;html=1;shape=mxgraph.flowchart.decision;whiteSpace=wrap;" vertex="1" parent="WIyWlLk6GJQsqaUBKTNV-1">
          <mxGeometry x="165" y="480" width="110" height="110" as="geometry" />
        </mxCell>
        <mxCell id="dWxM8UPutGdHs3OsUZbR-22" value="" style="edgeStyle=orthogonalEdgeStyle;rounded=0;orthogonalLoop=1;jettySize=auto;html=1;" edge="1" parent="WIyWlLk6GJQsqaUBKTNV-1" source="dWxM8UPutGdHs3OsUZbR-13" target="dWxM8UPutGdHs3OsUZbR-21">
          <mxGeometry relative="1" as="geometry" />
        </mxCell>
        <mxCell id="dWxM8UPutGdHs3OsUZbR-13" value="making JWT" style="rounded=1;whiteSpace=wrap;html=1;absoluteArcSize=1;arcSize=14;strokeWidth=2;" vertex="1" parent="WIyWlLk6GJQsqaUBKTNV-1">
          <mxGeometry x="170" y="690" width="100" height="40" as="geometry" />
        </mxCell>
        <mxCell id="dWxM8UPutGdHs3OsUZbR-16" value="{&lt;div&gt;id: number&lt;/div&gt;&lt;div&gt;roles: [string]&lt;/div&gt;&lt;div&gt;}&lt;/div&gt;" style="shape=parallelogram;html=1;strokeWidth=2;perimeter=parallelogramPerimeter;whiteSpace=wrap;rounded=1;arcSize=12;size=0.23;" vertex="1" parent="WIyWlLk6GJQsqaUBKTNV-1">
          <mxGeometry x="234" y="600" width="146" height="60" as="geometry" />
        </mxCell>
        <mxCell id="dWxM8UPutGdHs3OsUZbR-18" value="secret/secretController.KeyJWT" style="strokeWidth=2;html=1;shape=mxgraph.flowchart.document2;whiteSpace=wrap;size=0.25;" vertex="1" parent="WIyWlLk6GJQsqaUBKTNV-1">
          <mxGeometry x="20" y="609" width="190" height="60" as="geometry" />
        </mxCell>
        <mxCell id="dWxM8UPutGdHs3OsUZbR-19" value="JWT Private key" style="text;html=1;align=center;verticalAlign=middle;whiteSpace=wrap;rounded=0;" vertex="1" parent="WIyWlLk6GJQsqaUBKTNV-1">
          <mxGeometry x="80" y="570" width="65" height="30" as="geometry" />
        </mxCell>
        <mxCell id="dWxM8UPutGdHs3OsUZbR-20" value="JWT Body" style="text;html=1;align=center;verticalAlign=middle;whiteSpace=wrap;rounded=0;" vertex="1" parent="WIyWlLk6GJQsqaUBKTNV-1">
          <mxGeometry x="291" y="570" width="60" height="30" as="geometry" />
        </mxCell>
        <mxCell id="dWxM8UPutGdHs3OsUZbR-41" value="" style="edgeStyle=orthogonalEdgeStyle;rounded=0;orthogonalLoop=1;jettySize=auto;html=1;" edge="1" parent="WIyWlLk6GJQsqaUBKTNV-1" source="dWxM8UPutGdHs3OsUZbR-21" target="dWxM8UPutGdHs3OsUZbR-40">
          <mxGeometry relative="1" as="geometry" />
        </mxCell>
        <mxCell id="dWxM8UPutGdHs3OsUZbR-21" value="POST &amp;lt;-- auth/signin" style="rounded=1;whiteSpace=wrap;html=1;" vertex="1" parent="WIyWlLk6GJQsqaUBKTNV-1">
          <mxGeometry x="420" y="690" width="130" height="40" as="geometry" />
        </mxCell>
        <mxCell id="dWxM8UPutGdHs3OsUZbR-25" value="headers:&lt;div&gt;token: Bearer $JWT&lt;/div&gt;&lt;div&gt;code: 200&lt;/div&gt;" style="shape=parallelogram;html=1;strokeWidth=2;perimeter=parallelogramPerimeter;whiteSpace=wrap;rounded=1;arcSize=12;size=0.23;" vertex="1" parent="WIyWlLk6GJQsqaUBKTNV-1">
          <mxGeometry x="250" y="740" width="161" height="60" as="geometry" />
        </mxCell>
        <mxCell id="dWxM8UPutGdHs3OsUZbR-26" value="Response" style="text;html=1;align=center;verticalAlign=middle;whiteSpace=wrap;rounded=0;" vertex="1" parent="WIyWlLk6GJQsqaUBKTNV-1">
          <mxGeometry x="315" y="711" width="60" height="30" as="geometry" />
        </mxCell>
        <mxCell id="dWxM8UPutGdHs3OsUZbR-27" value="" style="endArrow=classic;html=1;rounded=0;exitX=1;exitY=0.5;exitDx=0;exitDy=0;exitPerimeter=0;entryX=0.5;entryY=0;entryDx=0;entryDy=0;" edge="1" parent="WIyWlLk6GJQsqaUBKTNV-1" source="dWxM8UPutGdHs3OsUZbR-11" target="dWxM8UPutGdHs3OsUZbR-21">
          <mxGeometry width="50" height="50" relative="1" as="geometry">
            <mxPoint x="390" y="600" as="sourcePoint" />
            <mxPoint x="440" y="550" as="targetPoint" />
            <Array as="points">
              <mxPoint x="485" y="535" />
            </Array>
          </mxGeometry>
        </mxCell>
        <mxCell id="dWxM8UPutGdHs3OsUZbR-28" value="" style="endArrow=classic;html=1;rounded=0;exitX=1;exitY=0.5;exitDx=0;exitDy=0;exitPerimeter=0;entryX=0.5;entryY=0;entryDx=0;entryDy=0;" edge="1" parent="WIyWlLk6GJQsqaUBKTNV-1" source="dWxM8UPutGdHs3OsUZbR-7" target="dWxM8UPutGdHs3OsUZbR-21">
          <mxGeometry width="50" height="50" relative="1" as="geometry">
            <mxPoint x="390" y="400" as="sourcePoint" />
            <mxPoint x="655" y="690" as="targetPoint" />
            <Array as="points">
              <mxPoint x="485" y="305" />
            </Array>
          </mxGeometry>
        </mxCell>
        <mxCell id="dWxM8UPutGdHs3OsUZbR-29" value="headers{&lt;div&gt;code: 400&lt;/div&gt;&lt;div&gt;}&lt;/div&gt;&lt;div&gt;body{&lt;/div&gt;&lt;div&gt;msg: &quot;Bad auth&quot;&lt;/div&gt;&lt;div&gt;}&lt;/div&gt;" style="shape=parallelogram;html=1;strokeWidth=2;perimeter=parallelogramPerimeter;whiteSpace=wrap;rounded=1;arcSize=12;size=0.23;" vertex="1" parent="WIyWlLk6GJQsqaUBKTNV-1">
          <mxGeometry x="519" y="550" width="130" height="110" as="geometry" />
        </mxCell>
        <mxCell id="dWxM8UPutGdHs3OsUZbR-30" value="Response" style="text;html=1;align=center;verticalAlign=middle;whiteSpace=wrap;rounded=0;rotation=90;" vertex="1" parent="WIyWlLk6GJQsqaUBKTNV-1">
          <mxGeometry x="480" y="590" width="60" height="30" as="geometry" />
        </mxCell>
        <mxCell id="dWxM8UPutGdHs3OsUZbR-31" value="No" style="text;html=1;align=center;verticalAlign=middle;whiteSpace=wrap;rounded=0;" vertex="1" parent="WIyWlLk6GJQsqaUBKTNV-1">
          <mxGeometry x="393" y="499" width="60" height="30" as="geometry" />
        </mxCell>
        <mxCell id="dWxM8UPutGdHs3OsUZbR-32" value="No" style="text;html=1;align=center;verticalAlign=middle;whiteSpace=wrap;rounded=0;" vertex="1" parent="WIyWlLk6GJQsqaUBKTNV-1">
          <mxGeometry x="393" y="270" width="60" height="30" as="geometry" />
        </mxCell>
        <mxCell id="dWxM8UPutGdHs3OsUZbR-33" value="Yes" style="text;html=1;align=center;verticalAlign=middle;whiteSpace=wrap;rounded=0;" vertex="1" parent="WIyWlLk6GJQsqaUBKTNV-1">
          <mxGeometry x="160" y="340" width="60" height="30" as="geometry" />
        </mxCell>
        <mxCell id="dWxM8UPutGdHs3OsUZbR-34" value="Yes" style="text;html=1;align=center;verticalAlign=middle;whiteSpace=wrap;rounded=0;" vertex="1" parent="WIyWlLk6GJQsqaUBKTNV-1">
          <mxGeometry x="170" y="579" width="60" height="30" as="geometry" />
        </mxCell>
        <mxCell id="dWxM8UPutGdHs3OsUZbR-35" value="User Data" style="swimlane;fontStyle=0;childLayout=stackLayout;horizontal=1;startSize=30;horizontalStack=0;resizeParent=1;resizeParentMax=0;resizeLast=0;collapsible=1;marginBottom=0;whiteSpace=wrap;html=1;" vertex="1" parent="WIyWlLk6GJQsqaUBKTNV-1">
          <mxGeometry x="275" y="355" width="140" height="120" as="geometry">
            <mxRectangle x="275" y="355" width="90" height="30" as="alternateBounds" />
          </mxGeometry>
        </mxCell>
        <mxCell id="dWxM8UPutGdHs3OsUZbR-36" value="Hashed password" style="text;strokeColor=none;fillColor=none;align=left;verticalAlign=middle;spacingLeft=4;spacingRight=4;overflow=hidden;points=[[0,0.5],[1,0.5]];portConstraint=eastwest;rotatable=0;whiteSpace=wrap;html=1;" vertex="1" parent="dWxM8UPutGdHs3OsUZbR-35">
          <mxGeometry y="30" width="140" height="30" as="geometry" />
        </mxCell>
        <mxCell id="dWxM8UPutGdHs3OsUZbR-37" value="Roles array" style="text;strokeColor=none;fillColor=none;align=left;verticalAlign=middle;spacingLeft=4;spacingRight=4;overflow=hidden;points=[[0,0.5],[1,0.5]];portConstraint=eastwest;rotatable=0;whiteSpace=wrap;html=1;" vertex="1" parent="dWxM8UPutGdHs3OsUZbR-35">
          <mxGeometry y="60" width="140" height="30" as="geometry" />
        </mxCell>
        <mxCell id="dWxM8UPutGdHs3OsUZbR-38" value="_ID" style="text;strokeColor=none;fillColor=none;align=left;verticalAlign=middle;spacingLeft=4;spacingRight=4;overflow=hidden;points=[[0,0.5],[1,0.5]];portConstraint=eastwest;rotatable=0;whiteSpace=wrap;html=1;" vertex="1" parent="dWxM8UPutGdHs3OsUZbR-35">
          <mxGeometry y="90" width="140" height="30" as="geometry" />
        </mxCell>
        <mxCell id="dWxM8UPutGdHs3OsUZbR-40" value="Exit" style="strokeWidth=2;html=1;shape=mxgraph.flowchart.terminator;whiteSpace=wrap;" vertex="1" parent="WIyWlLk6GJQsqaUBKTNV-1">
          <mxGeometry x="435" y="800" width="100" height="50" as="geometry" />
        </mxCell>
      </root>
    </mxGraphModel>
  </diagram>
</mxfile>
